<?xml version="1.0" encoding="UTF-8" standalone="no"?>
<svg
   xmlns:dc="http://purl.org/dc/elements/1.1/"
   xmlns:cc="http://creativecommons.org/ns#"
   xmlns:rdf="http://www.w3.org/1999/02/22-rdf-syntax-ns#"
   xmlns:svg="http://www.w3.org/2000/svg"
   xmlns="http://www.w3.org/2000/svg"
   viewBox="0 0 652.79999 403.20004"
   height="403.20004"
   width="652.79999"
   xml:space="preserve"
   id="svg2"
   version="1.1"><metadata
     id="metadata8"><rdf:RDF><cc:Work
         rdf:about=""><dc:format>image/svg+xml</dc:format><dc:type
           rdf:resource="http://purl.org/dc/dcmitype/StillImage" /></cc:Work></rdf:RDF></metadata><defs
     id="defs6" /><g
     transform="matrix(1.3333333,0,0,-1.3333333,0,403.20003)"
     id="g10"><g
       id="g12"><path
         id="path14"
         style="fill:#000000;fill-opacity:1;fill-rule:nonzero;stroke:none"
         d="M 0,151.201 V 302.4 H 105.602 V 0.002 L 0,0.002 Z m 121.602,0 V 302.4 H 302.398 V 0.002 h -52 v 76.796 c 0,76.27 0.012,76.801 1.602,76.801 1.586,0 1.602,-0.531 1.602,-69.199 V 15.201 h 17.597 v 168.801 h -45.597 v 17.597 h 28 v 71.199 h -84 v -71.199 h 28 V 184.002 H 152 V 15.201 h 17.602 V 84.4 c 0,68.668 0.011,69.199 1.597,69.199 1.59,0 1.602,-0.531 1.602,-76.801 V 0.002 H 121.602 Z M 319.199,60.798 v 60.801 h 30.403 V 74.4 h 64.796 v 80 h -95.199 v 148 H 489.602 V 227.201 H 472 v 45.597 H 348.801 V 201.599 H 489.602 V 0.002 H 319.199 Z M 184,245.201 v 6.801 h 13.602 V 238.4 H 184 Z m 41.602,0 v 6.801 h 13.597 V 238.4 h -13.597 z" /></g></g></svg>